inDegrees=no
nColumns=24
nRows=29
DataType=double
version=3
OpenSimVersion=4.5
endheader
time	pelvis_tilt	pelvis_list	pelvis_rotation	pelvis_tz	pelvis_ty	pelvis_tx	hip_flexion_r	hip_adduction_r	hip_rotation_r	knee_angle_r	ankle_angle_r	subtalar_angle_r	mtp_angle_r	hip_flexion_l	hip_adduction_l	hip_rotation_l	knee_angle_l	ankle_angle_l	subtalar_angle_l	mtp_angle_l	lumbar_extension	lumbar_bending	lumbar_rotation
0.9099999999999999	-0.01830056413500377	-0.01599772029815	0.09952532857733219	0.01267967	1.02462757	1.11520692	0.1539327125828911	0.03171097514407927	-0.2666042303606708	-0.2592250309921821	0.1494668243067472	-0.03690418854528731	0	0.4378726894582455	-0.0653332676824004	-0.04967355945214349	-1.099836554202244	-0.008301653700189123	-0.2606219447034569	0	-0.1745669846016539	0.07242120790157959	0.1303211626310991
0.9200000000000002	-0.02005922253456432	-0.0122944474607639	0.09152788876979884	0.01395610999999999	1.02540769	1.12684458	0.1345279312979774	0.03189860467091982	-0.2634161283477068	-0.2431339253673866	0.1562068717113178	-0.02809618358770102	0	0.4529053830932686	-0.06106233687249447	-0.06030224441245461	-1.062055809993925	0.009913494411404395	-0.2572656095312285	0	-0.1716919180365435	0.06618458239378962	0.1375608424735784
0.9299999999999999	-0.01425929800697404	-0.006909704743604072	0.07819051871218316	0.01547879999999999	1.0265054	1.13802162	0.1108534856140631	0.03008193875094165	-0.2531518794798522	-0.2342663041513425	0.1611379939056757	-0.008137266722997383	0	0.455254563628796	-0.0576868435701328	-0.07567448487213621	-1.016599098659623	0.02781305365844862	-0.2446181732600362	0	-0.1806315428108788	0.05869589695052707	0.1481171854562566
0.9399999999999997	-0.0162912722630702	-0.007178731264721574	0.07312546405297732	0.01646993999999999	1.02647189	1.14937802	0.09392083301303715	0.03300270100292899	-0.2565943609623663	-0.2213051503576248	0.1701405076053493	-0.004372134773780368	0	0.468139480393589	-0.0572254207528734	-0.08490890727630634	-0.9693971753594527	0.02585865961840538	-0.2403406648277782	0	-0.1778299088796509	0.05781209694936925	0.1515776558728381
0.95	-0.01762953429966273	-0.004862012999199743	0.06669793593550752	0.01746648000000001	1.02654666	1.16067696	0.07508170979710219	0.03369041396075694	-0.2515354448875127	-0.2064215602005995	0.1778737895986387	0.003913759126862022	0	0.4757004081561843	-0.05334719705318076	-0.09318419812720996	-0.9142051448665617	0.02765612010982753	-0.2313830216233112	0	-0.176901440317881	0.05400848328267256	0.1547160720271893
0.9599999999999997	-0.007543372085347646	0.001104825512131384	0.05510402066463115	0.01855845	1.02750386	1.17209642	0.04595040895462225	0.02977868465181498	-0.2449833638583283	-0.1964007610269204	0.1833130322906566	0.02120667892689317	0	0.4657804733053071	-0.04879297818719221	-0.1090179713598938	-0.8506439712347679	0.02881053847296189	-0.2161619490170668	0	-0.1907426254233027	0.04711205280632694	0.1611803183145695
0.97	-0.01053763158385057	-0.002793477541216973	0.05166431489103455	0.01928811999999999	1.02665333	1.18343485	0.03056587893354566	0.03599882395402355	-0.2485838637861266	-0.184798379217136	0.1928067788566807	0.02466156586066465	0	0.473834714715787	-0.04997182121147776	-0.1135433566885077	-0.7902017826576969	0.03189837009866835	-0.2091602861824002	0	-0.1867702637252123	0.05035987038698331	0.1642586270748113
0.9799999999999998	-0.001788464034308499	-0.001176986904130185	0.04500444926779302	0.02012148999999999	1.02682973	1.19478842	0.001987926701895963	0.03656076377356381	-0.2491005772378258	-0.1723792239835899	0.1978217873344761	0.03795129708469205	0	0.4629568173331763	-0.04839864565184655	-0.1269795171970531	-0.7196406428258023	0.0311089208515441	-0.1853262149540265	0	-0.1984508380308152	0.04818656894910746	0.1665500621703059
0.99	-0.005039257986162024	-0.007756068972203597	0.04011237017950216	0.02066746	1.02529074	1.20632173	-0.01344982521485802	0.04553542097117801	-0.247152862398297	-0.1602850626703333	0.2094869758645909	0.04261111709707253	0	0.467101826826341	-0.05271521751982382	-0.1330064862501777	-0.6536602082784929	0.01911962049054365	-0.1794715877397583	0	-0.1940204757570627	0.05513420092798836	0.1691121292413453
0.9999999999999998	-0.001388748898230548	-0.009605415163220265	0.03291085555826951	0.02147299999999999	1.02436112	1.2177904	-0.03621746169848674	0.04941450581632358	-0.2438129033013743	-0.1488817826110958	0.2135672776248038	0.04970897008827135	0	0.459435222868196	-0.05453532173842842	-0.149367208767025	-0.5791618547125834	0.002174673092135001	-0.1669936517368672	0	-0.1992197044355378	0.05676616144575478	0.1700082976927803
1.01	-0.004908935523076188	-0.02044945485576729	0.02921807904372153	0.02182187999999999	1.02199867	1.22939259	-0.0466211246744638	0.06134838394505866	-0.2482865143103923	-0.1467266490035357	0.2225828320755824	0.04958626541334159	0	0.4642808045560516	-0.0625555129969325	-0.1571623591916391	-0.513454223854007	0.002116574397461689	-0.1635880542974354	0	-0.1949904002518907	0.06928388083268168	0.1693582089721705
1.02	0.0007195952083147336	-0.02439574834528148	0.02312433067007224	0.02261652	1.02076108	1.24106325	-0.07578680309268736	0.06831469286679807	-0.2388748469138981	-0.1270299369666164	0.229802993202905	0.05782030366204505	0	0.4526649634652076	-0.06599274522718836	-0.1782243759798819	-0.4365184905860182	-0.02710537727557051	-0.1423194510886815	0	-0.2022231331603483	0.0730190852721489	0.1728709746891295
1.03	-0.001392622675505811	-0.03487603434058405	0.02136104587530617	0.02291672	1.01821259	1.25269927	-0.09051774448440512	0.08064561612160225	-0.2379176104391334	-0.1200608013096205	0.2401337644225347	0.05906816992039093	0	0.4540979362024274	-0.07210074764855508	-0.1874336445243394	-0.3703238013395961	-0.02518310479867975	-0.1319310429884986	0	-0.1992464095438896	0.08429631590747812	0.1749465013860453
1.04	0.0006597483968594842	-0.04091701623186449	0.0160617712577397	0.02373584000000001	1.01610262	1.2643345	-0.1106695593268294	0.08827736236392643	-0.2331257662172163	-0.1111109860813816	0.2468108387768971	0.05976713606310403	0	0.4500483126180755	-0.0774377613448288	-0.2201495221322529	-0.3032290838460983	-0.03201848051619795	-0.1016150805430728	0	-0.2027235904408614	0.09013714961013485	0.1743539324343959
1.05	-0.002006580648195108	-0.04887553769442996	0.01400065299675147	0.02405915	1.01327399	1.27576291	-0.1232292249098012	0.09748066258047378	-0.2306191273125618	-0.1068917433718064	0.2569245201845772	0.05917144419382409	0	0.4530589369863262	-0.08086401493049084	-0.2440352086807276	-0.2400199776819509	-0.03347991538472751	-0.07112333900736163	0	-0.2004398204823757	0.09878820356580752	0.1730318289453823
1.06	-0.003905596484282595	-0.05823315048021021	0.009536633692270143	0.02439317999999999	1.01037942	1.28721989	-0.1346414199363249	0.1070835267822667	-0.2251118345820745	-0.1069608084937688	0.2692029308455119	0.05961011769148129	0	0.4552499639880853	-0.08643334120045004	-0.2730765069079394	-0.1848269150013403	-0.03542575591517257	-0.03360137546536767	0	-0.1995871808915513	0.1090176322424202	0.1746797098329866
1.07	-0.007811238854825912	-0.06558255828817618	0.008259001888467583	0.02439426	1.0071389	1.29868431	-0.1424196794135041	0.1145657490967762	-0.2238942656687469	-0.1099461449610202	0.2814325942859056	0.05759139657479606	0	0.4603504735279419	-0.08754494942955979	-0.296272257123652	-0.1335350820779574	-0.04232919842632102	0.006855877576642607	0	-0.1959547417875074	0.117211037306275	0.1721847410723756
1.08	-0.009820402880074275	-0.07243538531604871	0.006038755479352716	0.02439671999999998	1.00406061	1.31008247	-0.1514001572841737	0.1210657652090444	-0.2228228734907945	-0.1146713704889874	0.2946236355183132	0.05829360327033135	0	0.4637784007098237	-0.08852473206760178	-0.317869637602915	-0.08741789452146943	-0.04824031357089582	0.0487899673196996	0	-0.1952872172276701	0.1244881066391881	0.1710868006911711
1.09	-0.01347548356863093	-0.07894240017311274	0.004434883329020458	0.02379956	1.00078748	1.32163646	-0.1577915889587595	0.1263748560807472	-0.222308617811748	-0.1210560262718183	0.3059417702135909	0.05808458438444176	0	0.4688486643918749	-0.08776778416727525	-0.3247008367475332	-0.0470163377284171	-0.04522232653119567	0.07023552963584616	0	-0.1921308007946115	0.1325083050535421	0.1714056486090327
1.1	-0.01403550823476314	-0.08238794858505123	0.004187801841606733	0.02346381	0.99789191	1.33302751	-0.1649037496355674	0.1285680888296149	-0.2251584783318011	-0.1327843039165367	0.3230056157238307	0.05621645952586365	0	0.4744087528086363	-0.08572174271367684	-0.334600281258459	-0.02019809818166034	-0.04803459178649617	0.09429345766674528	0	-0.193527390572777	0.1364229234059949	0.1673152366800617
1.11	-0.01440120695055245	-0.08477103753972083	0.00428412445772288	0.02315223	0.99522572	1.3447529	-0.1749197311769123	0.1304441254402253	-0.2257063762793773	-0.139148157120013	0.3243984099344719	0.0562974201138759	0	0.4842323144179427	-0.08451236428146304	-0.3384708665246803	-0.01121594008251986	-0.04531647185997627	0.09471445359707367	0	-0.1943081379573167	0.1378494618123942	0.1659763071698613
1.12	-0.01034064928010465	-0.08728259000319881	0.002397111757590892	0.02298171999999998	0.99302521	1.35637943	-0.1861239761571804	0.1309580315298226	-0.2276450417612675	-0.1530994819260135	0.3406542711499972	0.0572835033905176	0	0.4884030142850322	-0.08523669145447102	-0.3418098628979877	-0.009265931531288095	-0.03653909079851132	0.09996629627304762	0	-0.2015677133315383	0.1404456214469103	0.1632356854114272
1.13	-0.01115923181393708	-0.08815758461786093	0.001051723564361793	0.02274916999999999	0.9907974900000001	1.36844211	-0.1960007984084736	0.130605605047949	-0.2273670094151614	-0.1590910544801772	0.3406948413284598	0.05735413669081288	0	0.4944395554219064	-0.08388068651553376	-0.3420692121925829	-0.009285511507501596	-0.03706364165121659	0.09970455675004182	0	-0.2006021436077269	0.1403379227638234	0.1628541946596518
1.14	-0.005336860727867808	-0.08567686126861992	0.002233781583883931	0.02263078999999998	0.98906582	1.38019212	-0.2087546926081877	0.1267236786322483	-0.2297172364501082	-0.1734269861487995	0.3498270776719854	0.0568343820028921	0	0.5009219578458963	-0.08204117790083842	-0.3462500084403293	-0.03161604633699745	-0.03522544325519071	0.09470233437981368	0	-0.2105322909036563	0.1355378384934418	0.1584709931021504
1.15	-0.004234660402204681	-0.08308947118411866	0.001530725365148299	0.02232038	0.98730289	1.3924575	-0.2189498332444474	0.1224642954442724	-0.2263970699105019	-0.1828740558038413	0.3495857848556996	0.05832050141209847	0	0.5044364509152162	-0.07929168812447486	-0.3399774776701014	-0.04655896267875892	-0.03898072282078022	0.09456929334145484	0	-0.2123517414964561	0.1302577726217326	0.1590306247237549
1.16	0.000962157304457136	-0.07896014231871967	-0.000364568754872737	0.02204093999999998	0.98593609	1.40514803	-0.2317237585879867	0.114896221081989	-0.2288135964186783	-0.1973601735781965	0.3522737837154557	0.06013459209876532	0	0.5051339207871616	-0.07728374738298044	-0.3374324343660531	-0.07336306750203549	-0.03584740058438392	0.08722884516928239	0	-0.2190658869931966	0.1237107921427542	0.1577805389301993
1.17	0.001603722723450399	-0.07466571509078308	-0.001976653492234084	0.02173890000000001	0.9845926700000001	1.41812186	-0.2411636825160048	0.1082066950251441	-0.2225938234610798	-0.2081550034113219	0.347773987182604	0.06268127950296903	0	0.5053629898409651	-0.07363061565532485	-0.3259735824998333	-0.09407909580441656	-0.03861656458474059	0.08855823645512061	0	-0.2188028184019654	0.1157373786752633	0.1598480730663384
1.18	0.004551306491830122	-0.06894550905602793	-0.005676455827525093	0.02142892999999998	0.9835863500000001	1.43127915	-0.249233526471866	0.09753053466571782	-0.221592209895688	-0.227046875538707	0.3396415633992151	0.06583190790062933	0	0.5053801631826731	-0.07086016953609968	-0.323872474861137	-0.1256635310870677	-0.03293144968154557	0.08264070233862283	0	-0.2219344820519735	0.1065673220940445	0.1610124654625492
1.19	0.004467006829563818	-0.06376114140972824	-0.008405656473466805	0.02110101	0.9826652	1.44496573	-0.2573997656604465	0.08903066706397235	-0.2133917557960502	-0.2398323879486173	0.3328140310168224	0.06966508500139384	0	0.5042011018176981	-0.06683803226947289	-0.3118075284396965	-0.151244839735907	-0.03428887514396103	0.08301613138737306	0	-0.2191822091735847	0.09725023234438657	0.1632169140462561
